<?xml version="1.0" encoding="iso-8859-1"?>
<!-- Generator: Adobe Illustrator 23.0.6, SVG Export Plug-In . SVG Version: 6.00 Build 0)  -->
<svg version="1.1" baseProfile="basic" id="&#x421;&#x43B;&#x43E;&#x439;_1"
	 xmlns="http://www.w3.org/2000/svg" xmlns:xlink="http://www.w3.org/1999/xlink" x="0px" y="0px" viewBox="0 0 48 48"
	 xml:space="preserve">
<circle cx="24" cy="24" r="20"/>
<g>
	<linearGradient id="SVGID_1_" gradientUnits="userSpaceOnUse" x1="8.8476" y1="32.7483" x2="39.1524" y2="15.2517">
		<stop  offset="0" style="stop-color:#05509B"/>
		<stop  offset="0.271" style="stop-color:#0083DE"/>
		<stop  offset="0.8771" style="stop-color:#5FD2B0"/>
	</linearGradient>
	<path style="fill:url(#SVGID_1_);" d="M24,6.5C14.351,6.5,6.5,14.351,6.5,24S14.351,41.5,24,41.5S41.5,33.649,41.5,24
		S33.649,6.5,24,6.5z M24,39.5c-8.547,0-15.5-6.953-15.5-15.5S15.453,8.5,24,8.5S39.5,15.453,39.5,24S32.547,39.5,24,39.5z"/>
	<linearGradient id="SVGID_2_" gradientUnits="userSpaceOnUse" x1="12.7962" y1="28.5276" x2="32.3635" y2="17.2304">
		<stop  offset="0" style="stop-color:#05509B"/>
		<stop  offset="0.271" style="stop-color:#0083DE"/>
		<stop  offset="0.8771" style="stop-color:#5FD2B0"/>
	</linearGradient>
	<path style="fill:url(#SVGID_2_);" d="M26.663,12.004h-4.712c-0.875-0.058-1.657,0.545-1.831,1.411l-0.472,1.594h4.122
		c0.903-0.086,2.059,0.408,2.703,1.706c0.724,1.443,0.453,2.762-0.506,3.25c-0.958,0.488-2.236-0.043-2.96-1.48
		c-0.479-0.965-0.571-1.832-0.14-2.546h-3.402l-2.468,8.087h5.193c1.129,0,2.729,0.594,3.591,2.278
		c0.969,1.893,0.74,3.62-0.532,4.291c-1.272,0.67-3.061,0-4.03-1.899c-0.735-1.432-0.609-2.936-0.188-3.727h-4.259
		c0,0-1.601,5.652-1.627,5.856c-0.072,0.294-0.122,0.594-0.149,0.896c0,1.259,1.013,2.279,2.263,2.279h0.532h2.96
		c4.525-0.241,7.485-2.376,8.907-6.355c0.625-3.014-0.44-4.802-3.194-5.363c0,0,3.516-1.263,4.435-4.87
		C31.401,14.236,30.06,12.243,26.663,12.004z"/>
</g>
</svg>