<svg width="64.157" height="8.092" viewBox="0 0 64.157 8.092" xmlns="http://www.w3.org/2000/svg"><g id="svgGroup" stroke-linecap="round" fill-rule="evenodd" font-size="9pt" stroke="#fff" stroke-width="0.25mm" fill="#000" style="stroke:#fff;stroke-width:0.25mm;fill:#000"><path d="M 27.981 4.27 L 27.981 7.616 L 31.481 7.616 A 0.242 0.242 0 0 1 31.556 7.627 Q 31.663 7.661 31.663 7.812 L 31.663 7.854 A 0.121 0.121 0 0 1 31.659 7.887 Q 31.649 7.925 31.61 7.935 A 0.124 0.124 0 0 1 31.579 7.938 L 27.659 7.938 Q 27.617 7.938 27.617 7.896 L 27.617 0.196 Q 27.617 0.154 27.659 0.154 L 31.341 0.154 A 0.242 0.242 0 0 1 31.416 0.165 Q 31.523 0.199 31.523 0.35 L 31.523 0.392 A 0.121 0.121 0 0 1 31.519 0.425 Q 31.509 0.463 31.47 0.473 A 0.124 0.124 0 0 1 31.439 0.476 L 27.981 0.476 L 27.981 3.948 L 31.061 3.948 A 0.242 0.242 0 0 1 31.136 3.959 Q 31.243 3.993 31.243 4.144 L 31.243 4.186 A 0.121 0.121 0 0 1 31.239 4.219 Q 31.229 4.257 31.19 4.267 A 0.124 0.124 0 0 1 31.159 4.27 L 27.981 4.27 Z M 60.475 4.27 L 60.475 7.616 L 63.975 7.616 A 0.242 0.242 0 0 1 64.05 7.627 Q 64.157 7.661 64.157 7.812 L 64.157 7.854 A 0.121 0.121 0 0 1 64.153 7.887 Q 64.143 7.925 64.104 7.935 A 0.124 0.124 0 0 1 64.073 7.938 L 60.153 7.938 Q 60.111 7.938 60.111 7.896 L 60.111 0.196 Q 60.111 0.154 60.153 0.154 L 63.835 0.154 A 0.242 0.242 0 0 1 63.91 0.165 Q 64.017 0.199 64.017 0.35 L 64.017 0.392 A 0.121 0.121 0 0 1 64.013 0.425 Q 64.003 0.463 63.964 0.473 A 0.124 0.124 0 0 1 63.933 0.476 L 60.475 0.476 L 60.475 3.948 L 63.555 3.948 A 0.242 0.242 0 0 1 63.63 3.959 Q 63.737 3.993 63.737 4.144 L 63.737 4.186 A 0.121 0.121 0 0 1 63.733 4.219 Q 63.723 4.257 63.684 4.267 A 0.124 0.124 0 0 1 63.653 4.27 L 60.475 4.27 Z M 13.589 5.222 L 13.589 0.196 Q 13.589 0.154 13.631 0.154 L 13.645 0.154 Q 13.757 0.154 13.855 0.245 A 0.268 0.268 0 0 1 13.922 0.346 Q 13.953 0.427 13.953 0.546 L 13.953 5.264 Q 13.953 7.448 15.576 7.718 A 2.99 2.99 0 0 0 16.067 7.756 A 2.588 2.588 0 0 0 16.7 7.684 A 1.726 1.726 0 0 0 17.628 7.112 Q 18.056 6.602 18.144 5.73 A 4.754 4.754 0 0 0 18.167 5.25 L 18.167 0.196 A 0.093 0.093 0 0 1 18.168 0.181 Q 18.173 0.155 18.193 0.154 A 0.035 0.035 0 0 1 18.195 0.154 L 18.237 0.154 A 0.266 0.266 0 0 1 18.4 0.21 A 0.371 0.371 0 0 1 18.44 0.245 A 0.266 0.266 0 0 1 18.499 0.339 Q 18.531 0.421 18.531 0.546 L 18.531 5.18 A 4.953 4.953 0 0 1 18.469 5.992 Q 18.396 6.429 18.239 6.779 A 2.303 2.303 0 0 1 17.894 7.329 A 2.059 2.059 0 0 1 16.734 8.009 A 3.15 3.15 0 0 1 16.053 8.078 A 3.02 3.02 0 0 1 15.012 7.913 Q 13.682 7.426 13.595 5.498 A 6.145 6.145 0 0 1 13.589 5.222 Z M 11.713 0.868 L 7.331 7.616 L 11.657 7.616 A 0.282 0.282 0 0 1 11.735 7.626 Q 11.822 7.651 11.845 7.74 A 0.289 0.289 0 0 1 11.853 7.812 L 11.853 7.854 A 0.147 0.147 0 0 1 11.85 7.885 Q 11.839 7.938 11.783 7.938 L 7.037 7.938 Q 6.995 7.938 6.995 7.896 L 6.995 7.714 A 0.571 0.571 0 0 1 6.999 7.645 Q 7.004 7.608 7.014 7.576 A 0.339 0.339 0 0 1 7.016 7.567 A 0.537 0.537 0 0 1 7.033 7.524 Q 7.055 7.474 7.093 7.406 L 11.573 0.476 L 7.331 0.476 Q 7.308 0.476 7.304 0.447 A 0.097 0.097 0 0 1 7.303 0.434 L 7.303 0.196 A 0.093 0.093 0 0 1 7.304 0.181 Q 7.309 0.155 7.329 0.154 A 0.035 0.035 0 0 1 7.331 0.154 L 11.545 0.154 A 0.589 0.589 0 0 1 11.67 0.166 Q 11.881 0.212 11.881 0.434 L 11.881 0.49 Q 11.881 0.594 11.737 0.83 A 3.063 3.063 0 0 1 11.713 0.868 Z M 58.459 0.966 L 58.445 1.008 A 0.46 0.46 0 0 1 58.43 1.041 Q 58.395 1.106 58.361 1.106 A 0.119 0.119 0 0 1 58.288 1.081 A 0.149 0.149 0 0 1 58.284 1.078 A 0.51 0.51 0 0 0 58.259 1.059 Q 58.247 1.05 58.235 1.044 A 0.241 0.241 0 0 0 58.221 1.036 Q 57.722 0.672 57.255 0.502 A 2.828 2.828 0 0 0 57.22 0.49 Q 56.737 0.322 56.163 0.322 A 3.132 3.132 0 0 0 55.159 0.476 A 2.589 2.589 0 0 0 53.951 1.33 Q 53.139 2.338 53.139 4.06 A 5.881 5.881 0 0 0 53.234 5.151 Q 53.354 5.782 53.622 6.282 A 3.169 3.169 0 0 0 53.944 6.769 A 2.605 2.605 0 0 0 55.839 7.758 A 3.59 3.59 0 0 0 56.135 7.77 A 3.111 3.111 0 0 0 56.751 7.713 Q 57.133 7.636 57.434 7.455 A 1.876 1.876 0 0 0 57.542 7.385 A 2.297 2.297 0 0 0 58.197 6.702 A 2.223 2.223 0 0 0 58.347 6.412 A 0.455 0.455 0 0 1 58.372 6.363 Q 58.419 6.286 58.473 6.286 A 0.132 0.132 0 0 1 58.531 6.298 Q 58.587 6.325 58.597 6.413 A 0.367 0.367 0 0 1 58.599 6.454 Q 58.599 6.566 58.514 6.764 A 2.512 2.512 0 0 1 58.466 6.867 A 1.564 1.564 0 0 1 58.313 7.116 Q 58.228 7.229 58.117 7.344 A 2.925 2.925 0 0 1 58.039 7.42 Q 57.764 7.683 57.328 7.871 A 3.519 3.519 0 0 1 57.269 7.896 Q 56.858 8.066 56.288 8.089 A 4.514 4.514 0 0 1 56.107 8.092 Q 55.099 8.092 54.35 7.609 Q 53.601 7.126 53.188 6.216 Q 52.794 5.347 52.776 4.158 A 7.546 7.546 0 0 1 52.775 4.046 Q 52.775 2.833 53.174 1.938 A 3.867 3.867 0 0 1 53.195 1.89 A 3.493 3.493 0 0 1 53.755 1.023 A 3.01 3.01 0 0 1 54.378 0.49 A 3.065 3.065 0 0 1 55.593 0.043 A 4.01 4.01 0 0 1 56.191 0 Q 56.849 0 57.311 0.168 Q 57.773 0.336 58.165 0.56 Q 58.389 0.7 58.445 0.777 Q 58.501 0.853 58.461 0.963 A 0.358 0.358 0 0 1 58.459 0.966 Z M 35.639 0.462 L 38.075 7.308 L 40.469 0.28 Q 40.525 0.154 40.637 0.154 L 40.805 0.154 Q 40.861 0.154 40.861 0.224 L 38.229 7.882 Q 38.216 7.937 38.149 7.938 A 0.169 0.169 0 0 1 38.145 7.938 L 37.991 7.938 A 0.084 0.084 0 0 1 37.963 7.934 Q 37.939 7.925 37.927 7.899 A 0.102 0.102 0 0 1 37.921 7.882 L 35.163 0.224 A 0.121 0.121 0 0 1 35.159 0.213 Q 35.143 0.156 35.215 0.154 A 0.191 0.191 0 0 1 35.219 0.154 L 35.275 0.154 A 0.449 0.449 0 0 1 35.364 0.162 Q 35.416 0.173 35.455 0.197 A 0.229 0.229 0 0 1 35.506 0.238 Q 35.573 0.311 35.624 0.425 A 1.063 1.063 0 0 1 35.639 0.462 Z M 23.319 4.774 L 21.121 4.774 L 21.121 7.896 Q 21.121 7.938 21.079 7.938 L 20.799 7.938 Q 20.757 7.938 20.757 7.896 L 20.757 0.196 Q 20.757 0.154 20.799 0.154 L 23.291 0.154 A 3.135 3.135 0 0 1 24.046 0.24 A 2.23 2.23 0 0 1 25.013 0.742 A 1.901 1.901 0 0 1 25.594 1.737 Q 25.669 2.046 25.671 2.412 A 3.687 3.687 0 0 1 25.671 2.436 A 3.308 3.308 0 0 1 25.613 3.077 Q 25.537 3.46 25.364 3.762 A 1.902 1.902 0 0 1 25.237 3.955 A 1.892 1.892 0 0 1 24.329 4.611 A 2.566 2.566 0 0 1 23.991 4.704 L 25.825 7.882 A 0.102 0.102 0 0 1 25.83 7.892 Q 25.847 7.936 25.788 7.938 A 0.163 0.163 0 0 1 25.783 7.938 L 25.545 7.938 Q 25.457 7.938 25.391 7.846 A 0.385 0.385 0 0 1 25.377 7.826 L 23.613 4.76 Q 23.543 4.774 23.466 4.774 L 23.319 4.774 Z M 4.881 5.39 L 1.311 5.39 L 0.415 7.826 A 0.494 0.494 0 0 1 0.401 7.858 Q 0.387 7.889 0.372 7.905 A 0.083 0.083 0 0 1 0.359 7.917 A 0.067 0.067 0 0 1 0.341 7.926 Q 0.307 7.938 0.233 7.938 L 0.037 7.938 A 0.082 0.082 0 0 1 0.024 7.937 Q -0.015 7.931 0.009 7.882 L 2.893 0.21 A 0.241 0.241 0 0 1 2.905 0.189 Q 2.918 0.169 2.931 0.16 A 0.033 0.033 0 0 1 2.949 0.154 L 2.977 0.154 A 0.301 0.301 0 0 1 3.108 0.182 Q 3.177 0.214 3.223 0.286 A 0.427 0.427 0 0 1 3.257 0.35 L 6.253 7.882 A 0.128 0.128 0 0 1 6.258 7.892 Q 6.273 7.931 6.239 7.937 A 0.082 0.082 0 0 1 6.225 7.938 L 5.987 7.938 A 0.368 0.368 0 0 1 5.959 7.937 Q 5.913 7.934 5.896 7.917 Q 5.877 7.898 5.839 7.836 A 1.714 1.714 0 0 1 5.833 7.826 L 4.881 5.39 Z M 45.117 8.078 Q 43.507 8.078 42.702 6.993 A 3.786 3.786 0 0 1 42.111 5.763 Q 41.964 5.247 41.918 4.636 A 7.682 7.682 0 0 1 41.897 4.06 A 6.772 6.772 0 0 1 41.999 2.853 Q 42.121 2.177 42.392 1.636 A 3.584 3.584 0 0 1 42.716 1.106 A 2.657 2.657 0 0 1 44.551 0.039 A 3.97 3.97 0 0 1 45.117 0 A 3.647 3.647 0 0 1 46.1 0.125 A 2.555 2.555 0 0 1 47.518 1.106 A 3.925 3.925 0 0 1 48.122 2.398 Q 48.27 2.94 48.309 3.582 A 7.835 7.835 0 0 1 48.323 4.06 Q 48.323 5.908 47.532 6.993 A 2.551 2.551 0 0 1 45.921 8.002 A 3.994 3.994 0 0 1 45.117 8.078 Z M 45.117 7.756 A 2.932 2.932 0 0 0 46.056 7.61 A 2.646 2.646 0 0 0 46.573 7.371 A 2.369 2.369 0 0 0 47.301 6.682 A 3.221 3.221 0 0 0 47.588 6.174 A 3.645 3.645 0 0 0 47.828 5.438 Q 47.959 4.836 47.959 4.06 A 7.551 7.551 0 0 0 47.916 3.221 Q 47.867 2.789 47.765 2.426 A 3.524 3.524 0 0 0 47.588 1.932 Q 47.217 1.106 46.573 0.714 A 2.708 2.708 0 0 0 45.268 0.326 A 3.27 3.27 0 0 0 45.117 0.322 Q 44.305 0.322 43.654 0.714 A 2.385 2.385 0 0 0 42.921 1.416 A 3.252 3.252 0 0 0 42.632 1.932 Q 42.344 2.574 42.28 3.504 A 8.08 8.08 0 0 0 42.261 4.06 A 7.506 7.506 0 0 0 42.305 4.897 Q 42.389 5.641 42.632 6.174 A 3.066 3.066 0 0 0 43.011 6.803 A 2.325 2.325 0 0 0 43.654 7.371 Q 44.305 7.756 45.117 7.756 Z M 50.367 7.896 L 50.367 0.196 Q 50.367 0.154 50.409 0.154 L 50.437 0.154 A 0.266 0.266 0 0 1 50.6 0.21 A 0.371 0.371 0 0 1 50.64 0.245 A 0.266 0.266 0 0 1 50.699 0.339 Q 50.731 0.421 50.731 0.546 L 50.731 7.896 Q 50.731 7.938 50.689 7.938 L 50.409 7.938 Q 50.367 7.938 50.367 7.896 Z M 21.121 0.476 L 21.121 4.466 L 23.291 4.466 Q 23.795 4.466 24.257 4.291 Q 24.719 4.116 25.013 3.675 A 1.539 1.539 0 0 0 25.204 3.258 Q 25.307 2.91 25.307 2.436 A 2.618 2.618 0 0 0 25.245 1.849 Q 25.127 1.334 24.782 0.994 A 1.742 1.742 0 0 0 23.928 0.537 A 2.597 2.597 0 0 0 23.347 0.476 L 21.121 0.476 Z M 3.047 0.756 L 1.437 5.068 L 4.755 5.068 L 3.047 0.756 Z" vector-effect="non-scaling-stroke"/></g></svg>